<svg xmlns="http://www.w3.org/2000/svg" height="26" viewBox="0 0 32 32"><defs><style>.cls-1{fill:#d9d9d9;}</style></defs><title>facebook</title><g id="Layer_2" data-name="Layer 2"><g id="Layer_1-2" data-name="Layer 1"><path id="White" class="cls-1" d="M30.67,0H1.33A1.34,1.34,0,0,0,0,1.33V30.67A1.34,1.34,0,0,0,1.33,32H17V20H13V15h4V11c0-4.13,2.62-6.17,6.3-6.17A33.89,33.89,0,0,1,27,5V9.34H24.47c-2,0-2.47,1-2.47,2.36V15h5l-1,5H22l.08,12h8.59A1.34,1.34,0,0,0,32,30.67V1.33A1.34,1.34,0,0,0,30.67,0Z"/></g></g></svg>