<?xml version="1.0" encoding="utf-8"?>
<!-- Generator: Adobe Illustrator 23.0.3, SVG Export Plug-In . SVG Version: 6.00 Build 0)  -->
<svg version="1.1" id="Layer_1" height="34.927" xmlns="http://www.w3.org/2000/svg" xmlns:xlink="http://www.w3.org/1999/xlink" x="0px" y="0px"
	 viewBox="0 0 512 512" style="enable-background:new 0 0 512 512;" xml:space="preserve">
<style type="text/css">
	.st0{fill:#D9D9D9;}
</style>
<path class="st0" d="M102.7,472.8h141.4V318.7h-50.8v-50.8h50.8v-63.5c0-35,28.5-63.5,63.5-63.5h63.5v50.8h-50.8
	c-14,0-25.4,11.4-25.4,25.4v50.8h73.9l-8.5,50.8H295v154.1h114.3c35,0,63.5-28.5,63.5-63.5V102.7c0-35-28.5-63.5-63.5-63.5H102.7
	c-35,0-63.5,28.5-63.5,63.5v306.6C39.2,444.3,67.7,472.8,102.7,472.8z M64.6,102.7c0-21,17.1-38.1,38.1-38.1h306.6
	c21,0,38.1,17.1,38.1,38.1v306.6c0,21-17.1,38.1-38.1,38.1h-88.9V344.1h61.6l16.9-101.6h-78.5V217h76.2V115.4h-88.9
	c-49,0-88.9,39.9-88.9,88.9v38.1h-50.8v101.6h50.8v103.3h-116c-21,0-38.1-17.1-38.1-38.1V102.7z"/>
</svg>
