<svg xmlns="http://www.w3.org/2000/svg" height="26" viewBox="0 0 32 32"><defs><style>.cls-1{fill:#d9d9d9;}</style></defs><title>instagram</title><g id="Layer_2" data-name="Layer 2"><g id="Layer_1-2" data-name="Layer 1"><path class="cls-1" d="M28.2,0H3.8A3.8,3.8,0,0,0,0,3.8V28.2A3.8,3.8,0,0,0,3.8,32H28.2A3.8,3.8,0,0,0,32,28.2V3.8A3.8,3.8,0,0,0,28.2,0ZM24,4h3a1,1,0,0,1,1,1V8a1,1,0,0,1-1,1H24a1,1,0,0,1-1-1V5A1,1,0,0,1,24,4ZM16,9.9A6.14,6.14,0,1,1,9.88,16,6.14,6.14,0,0,1,16,9.9ZM28,29H4a1,1,0,0,1-1-1V13H7a6.13,6.13,0,0,0-.7,3,9.74,9.74,0,0,0,19.47,0A5.09,5.09,0,0,0,25,13h4V28A1,1,0,0,1,28,29Z"/></g></g></svg>