<svg xmlns="http://www.w3.org/2000/svg" height="26" viewBox="0 0 31 31"><defs><style>.cls-1{fill:#d9d9d9;}</style></defs><title>pinterest</title><g id="Layer_2" data-name="Layer 2"><g id="Layer_1-2" data-name="Layer 1"><path class="cls-1" d="M15.5,0A15.5,15.5,0,0,0,9.85,29.93a14.74,14.74,0,0,1,.06-4.44c.28-1.21,1.81-7.71,1.81-7.71a5.64,5.64,0,0,1-.46-2.3c0-2.15,1.25-3.76,2.8-3.76a1.94,1.94,0,0,1,2,2.18c0,1.33-.84,3.32-1.28,5.16a2.25,2.25,0,0,0,2.3,2.8c2.75,0,4.87-2.9,4.87-7.1a6.12,6.12,0,0,0-6.48-6.3,6.7,6.7,0,0,0-7,6.72,6,6,0,0,0,1.15,3.54.49.49,0,0,1,.11.45l-.43,1.75c-.07.29-.23.35-.52.21-1.94-.9-3.15-3.73-3.15-6,0-4.89,3.55-9.38,10.24-9.38,5.38,0,9.56,3.83,9.56,9,0,5.34-3.37,9.64-8,9.64a4.17,4.17,0,0,1-3.56-1.78l-1,3.69a17.51,17.51,0,0,1-1.93,4.06A15.5,15.5,0,1,0,15.5,0Z"/></g></g></svg>