<svg xmlns="http://www.w3.org/2000/svg" height="26" viewBox="0 0 32 31.92"><defs><style>.cls-1{fill:#d9d9d9;}</style></defs><title>skype</title><g id="Layer_2" data-name="Layer 2"><g id="Layer_1-2" data-name="Layer 1"><path class="cls-1" d="M30.87,18.63l0,.17-.05-.33a1.19,1.19,0,0,0,.08.16,15.69,15.69,0,0,0,.25-2.74A15.15,15.15,0,0,0,21.89,2a15.25,15.25,0,0,0-8.74-.91h0l.16.08-.32,0,.16,0A8.94,8.94,0,0,0,0,9a8.85,8.85,0,0,0,1.13,4.33.88.88,0,0,1,0-.16l.06.31a.71.71,0,0,1-.08-.15A15.17,15.17,0,0,0,.9,15.89a15,15,0,0,0,1.19,5.88,15.11,15.11,0,0,0,8,8A15,15,0,0,0,16,31a14.67,14.67,0,0,0,2.65-.24l-.16-.08.32.06-.16,0A8.94,8.94,0,0,0,30.87,18.63Zm-14.8,6.51c-5.37,0-7.77-2.64-7.77-4.62a1.69,1.69,0,0,1,1.78-1.72c2.3,0,1.7,3.3,6,3.3,2.19,0,3.41-1.19,3.41-2.41,0-.74-.37-1.55-1.81-1.91l-4.78-1.19c-3.84-1-4.54-3-4.54-5C8.35,7.54,12.17,6,15.76,6c3.3,0,7.2,1.83,7.2,4.26A1.74,1.74,0,0,1,21,11.92c-2,0-1.6-2.71-5.55-2.71-2,0-3,.89-3,2.16s1.55,1.67,2.89,2l3.54.78c3.87.86,4.85,3.12,4.85,5.25C23.71,22.68,21.18,25.14,16.07,25.14Z"/></g></g></svg>