<svg xmlns="http://www.w3.org/2000/svg" height="26" viewBox="0 0 30.2 29.07"><defs><style>.cls-1{fill:#d9d9d9;}</style></defs><title>snapchat</title><g id="Layer_2" data-name="Layer 2"><g id="Layer_1-2" data-name="Layer 1"><path class="cls-1" d="M29.08,20a4.48,4.48,0,0,0-.83-.31,5.19,5.19,0,0,1-3.83-3.8l1.42-.57a2.56,2.56,0,0,0,1.6-2.94,2.36,2.36,0,0,0-.84-1.32,2.31,2.31,0,0,0-1.43-.49,2.39,2.39,0,0,0-.53.06l-.47.11c0-.55,0-1.13,0-1.72a8.86,8.86,0,0,0-.72-3.51A9.25,9.25,0,0,0,18.59.72,8.77,8.77,0,0,0,15.09,0h0a8.86,8.86,0,0,0-3.51.72,9.14,9.14,0,0,0-2.86,2A9,9,0,0,0,6.79,5.54a8.86,8.86,0,0,0-.72,3.51c0,.59,0,1.17,0,1.72l-.47-.11A2.39,2.39,0,0,0,5,10.6a2.31,2.31,0,0,0-1.43.49,2.36,2.36,0,0,0-.84,1.32,2.56,2.56,0,0,0,1.6,2.94l1.42.57A5.19,5.19,0,0,1,2,19.72a4.48,4.48,0,0,0-.83.31A1.86,1.86,0,0,0,0,21.72,2.09,2.09,0,0,0,.87,23.4,3.57,3.57,0,0,0,1.94,24a13,13,0,0,0,1.83.43,4,4,0,0,0,.14.65,2.29,2.29,0,0,0,1.3,1.54,3,3,0,0,0,1.14.19c.28,0,.58,0,.89,0s.69,0,1,0a3.05,3.05,0,0,1,1.22.19c.39.18.8.42,1.24.68a8.5,8.5,0,0,0,4.36,1.53,8.5,8.5,0,0,0,4.36-1.53c.44-.26.85-.5,1.24-.68a3,3,0,0,1,1.22-.19c.35,0,.7,0,1,0s.61,0,.89,0A3,3,0,0,0,25,26.57,2.29,2.29,0,0,0,26.29,25a4,4,0,0,0,.14-.65A13,13,0,0,0,28.26,24a3.57,3.57,0,0,0,1.07-.55,2.09,2.09,0,0,0,.87-1.68A1.86,1.86,0,0,0,29.08,20Z"/></g></g></svg>