<?xml version="1.0" encoding="utf-8"?>
<!-- Generator: Adobe Illustrator 23.0.3, SVG Export Plug-In . SVG Version: 6.00 Build 0)  -->
<svg version="1.1" id="_70376" height="34.927" xmlns="http://www.w3.org/2000/svg" xmlns:xlink="http://www.w3.org/1999/xlink" x="0px" y="0px"
	 viewBox="0 0 25.9 25.9" style="enable-background:new 0 0 25.9 25.9;" xml:space="preserve">
<style type="text/css">
	.st0{fill:#D9D9D9;}
</style>
<path class="st0" d="M25.8,4.9C24.2,5,24.3,5,24.1,5l1-2.7c0,0-3,1.1-3.8,1.3c-2-1.8-5-1.9-7.1-0.6c-1.7,1.1-2.7,2.9-2.4,5
	C8.5,7.5,5.6,5.9,3.4,3.2L2.7,2.4l-0.5,1C1.5,4.6,1.2,6,1.5,7.3c0.1,0.5,0.3,1.1,0.6,1.5L1.5,8.6l-0.1,1c-0.1,1,0.3,2.2,0.9,3.2
	c0.2,0.3,0.4,0.6,0.7,0.9l-0.3,0l0.4,1.2c0.5,1.5,1.6,2.7,2.9,3.4c-1.4,0.6-2.5,0.9-4.3,1.5l-1.7,0.5l1.5,0.8
	c0.6,0.3,2.6,1.4,4.7,1.7c4.5,0.7,9.6,0.1,13-2.9c2.9-2.6,3.8-6.3,3.6-10.1c0-0.6,0.1-1.1,0.4-1.6C24,7.4,25.8,4.9,25.8,4.9z
	 M22.2,7.3c-0.5,0.7-0.8,1.6-0.7,2.5c0.2,3.9-0.9,6.9-3.1,8.9c-2.7,2.4-7,3.3-11.8,2.6C5.6,21.3,4.7,21,4,20.7
	c1.5-0.5,2.7-1,4.6-1.9l2.6-1.2l-2.9-0.2c-1.4-0.1-2.6-0.8-3.3-1.9c0.4,0,0.7-0.1,1.1-0.2l2.8-0.8l-2.8-0.7
	c-1.4-0.3-2.1-1.1-2.5-1.8c-0.3-0.4-0.4-0.8-0.6-1.2C3.3,10.9,3.6,11,4.1,11l2.6,0.3L4.7,9.7C3.2,8.5,2.6,6.8,3,5.1
	c4.6,4.8,10,4.4,10.6,4.6c-0.1-1.2-0.1-1.2-0.2-1.3c-0.7-2.5,0.8-3.7,1.5-4.1c1.4-0.9,3.7-1,5.3,0.4C20.6,5,21.1,5.1,21.5,5
	c0.4-0.1,0.7-0.2,1-0.3l-0.7,1.9l0.8,0C22.6,6.8,22.4,7,22.2,7.3z"/>
</svg>
