<svg xmlns="http://www.w3.org/2000/svg" height="26" viewBox="0 0 32 26.01"><defs><style>.cls-1{fill:#d9d9d9;}</style></defs><title>twitter</title><g id="Layer_2" data-name="Layer 2"><g id="Layer_1-2" data-name="Layer 1"><path class="cls-1" d="M32,3.08a13.23,13.23,0,0,1-3.77,1A6.61,6.61,0,0,0,31.12.48,13.16,13.16,0,0,1,27,2.07a6.57,6.57,0,0,0-11.36,4.5,6.67,6.67,0,0,0,.17,1.49A18.63,18.63,0,0,1,2.23,1.2a6.49,6.49,0,0,0-.89,3.3A6.58,6.58,0,0,0,4.26,10a6.59,6.59,0,0,1-3-.82v.08a6.58,6.58,0,0,0,5.26,6.44,6.57,6.57,0,0,1-1.73.23,7.12,7.12,0,0,1-1.23-.12,6.57,6.57,0,0,0,6.13,4.56,13.19,13.19,0,0,1-8.15,2.81A13.51,13.51,0,0,1,0,23.06a18.62,18.62,0,0,0,10.06,3C22.14,26,28.74,16,28.74,7.33c0-.29,0-.57,0-.85A13.25,13.25,0,0,0,32,3.08Z"/></g></g></svg>