<svg xmlns="http://www.w3.org/2000/svg" height="26" viewBox="0 0 35.07 30.68"><defs><style>.cls-1{fill:#d9d9d9;}</style></defs><title>wechat</title><g id="Layer_2" data-name="Layer 2"><g id="Layer_1-2" data-name="Layer 1"><path class="cls-1" d="M13.15,0C5.89,0,0,4.91,0,11a10.39,10.39,0,0,0,5,8.59L3.29,23,8,21a15,15,0,0,0,3.19.79A9.36,9.36,0,0,1,11,19.72c0-6,5.9-10.95,13.15-10.95a15.7,15.7,0,0,1,1.95.13C24.9,3.83,19.57,0,13.15,0ZM8.77,8.22a1.65,1.65,0,1,1,1.64-1.65A1.65,1.65,0,0,1,8.77,8.22Zm8.76,0a1.65,1.65,0,1,1,1.65-1.65A1.65,1.65,0,0,1,17.53,8.22Z"/><path class="cls-1" d="M35.07,19.72c0-4.84-4.91-8.76-11-8.76s-11,3.92-11,8.76,4.91,8.77,11,8.77A13.4,13.4,0,0,0,27,28.15l5.9,2.53-2-4.08A8.26,8.26,0,0,0,35.07,19.72Zm-14.25-.54a1.65,1.65,0,1,1,1.64-1.65A1.64,1.64,0,0,1,20.82,19.18Zm6.58,0A1.65,1.65,0,1,1,29,17.53,1.65,1.65,0,0,1,27.4,19.18Z"/></g></g></svg>