<svg xmlns="http://www.w3.org/2000/svg" height="26" viewBox="0 0 30.02 30.15"><defs><style>.cls-1,.cls-2{fill:#d9d9d9;}.cls-2{fill-rule:evenodd;}</style></defs><title>whatsapp</title><g id="Layer_2" data-name="Layer 2"><g id="Layer_1-2" data-name="Layer 1"><path class="cls-1" d="M0,30.15l2.12-7.74A15,15,0,0,1,15.07,0a14.95,14.95,0,1,1,0,29.89h0a15,15,0,0,1-7.15-1.82Zm8.29-4.78.45.27a12.44,12.44,0,0,0,6.33,1.73h0A12.43,12.43,0,0,0,27.49,15,12.43,12.43,0,0,0,15.08,2.52a12.43,12.43,0,0,0-10.53,19l.29.47L3.59,26.6Z"/><path class="cls-2" d="M11.34,8.69c-.31-.72-.62-.63-.84-.64H9.78a1.37,1.37,0,0,0-1,.47,4.17,4.17,0,0,0-1.3,3.11A7.31,7.31,0,0,0,9,15.48c.19.25,2.64,4,6.38,5.64a20,20,0,0,0,2.13.79,5.27,5.27,0,0,0,2.35.15,3.86,3.86,0,0,0,2.52-1.78,3.19,3.19,0,0,0,.22-1.78c-.09-.15-.34-.24-.71-.43S19.68,17,19.33,16.85s-.59-.18-.84.19-1,1.22-1.18,1.46-.43.29-.81.1a10.38,10.38,0,0,1-3-1.85,11.43,11.43,0,0,1-2.08-2.59c-.22-.37,0-.58.16-.76s.38-.44.57-.66a2.75,2.75,0,0,0,.37-.62.7.7,0,0,0,0-.65C12.39,11.28,11.65,9.44,11.34,8.69Z"/></g></g></svg>