<svg xmlns="http://www.w3.org/2000/svg" height="26" viewBox="0 0 32 22.51"><defs><style>.cls-1{fill:#d9d9d9;}</style></defs><title>youtube</title><g id="Layer_2" data-name="Layer 2"><g id="Layer_1-2" data-name="Layer 1"><path class="cls-1" d="M31.68,4.86a6.91,6.91,0,0,0-1.27-3.18A4.59,4.59,0,0,0,27.2.32C22.72,0,16,0,16,0h0S9.28,0,4.8.32A4.59,4.59,0,0,0,1.59,1.68,6.91,6.91,0,0,0,.32,4.86,48.11,48.11,0,0,0,0,10v2.43a48.41,48.41,0,0,0,.32,5.18,6.91,6.91,0,0,0,1.27,3.18,5.5,5.5,0,0,0,3.53,1.37c2.56.24,10.88.32,10.88.32s6.72,0,11.2-.34a4.57,4.57,0,0,0,3.21-1.35,6.91,6.91,0,0,0,1.27-3.18A48.41,48.41,0,0,0,32,12.46V10A48.11,48.11,0,0,0,31.68,4.86ZM12.7,15.4v-9l8.65,4.51Z"/></g></g></svg>