<?xml version="1.0" encoding="utf-8"?>
<!-- Generator: Adobe Illustrator 23.0.3, SVG Export Plug-In . SVG Version: 6.00 Build 0)  -->
<svg version="1.1" id="_70376"  height="34.927" xmlns="http://www.w3.org/2000/svg" xmlns:xlink="http://www.w3.org/1999/xlink" x="0px" y="0px"
	 viewBox="0 0 25.9 25.9" style="enable-background:new 0 0 25.9 25.9;" xml:space="preserve">
<style type="text/css">
	.st0{fill:#D9D9D9;}
</style>
<path class="st0" d="M16.9,12l-5.7-3.1c-0.3-0.2-0.7-0.2-1,0C9.8,9,9.6,9.4,9.6,9.8v6.2c0,0.4,0.2,0.7,0.5,0.9
	c0.2,0.1,0.4,0.1,0.5,0.1c0.2,0,0.3,0,0.5-0.1l5.7-3.1c0.3-0.2,0.6-0.5,0.6-0.9C17.4,12.5,17.2,12.1,16.9,12z M11.1,15.2v-4.6
	l4.3,2.3L11.1,15.2z"/>
<path class="st0" d="M25.6,7.9L25.6,7.9c0-0.2-0.2-2.1-1.1-3c-1-1.1-2.2-1.2-2.8-1.3c0,0-0.1,0-0.1,0l0,0c-3.4-0.2-8.6-0.3-8.6-0.3
	l0,0l0,0c-0.1,0-5.2,0-8.7,0.3l0,0c0,0-0.1,0-0.1,0C3.5,3.7,2.4,3.8,1.3,5C0.5,5.9,0.2,7.7,0.2,7.9l0,0C0.2,8,0,10.1,0,12.2v1.9
	c0,2.1,0.2,4.1,0.2,4.2l0,0c0,0.2,0.2,2,1.1,3c1,1.1,2.2,1.2,2.9,1.3c0.1,0,0.2,0,0.3,0l0.1,0c2,0.2,8.2,0.3,8.4,0.3l0,0l0,0
	c0.1,0,5.2,0,8.6-0.3l0,0c0,0,0.1,0,0.1,0c0.6-0.1,1.7-0.2,2.7-1.3c0.9-0.9,1.1-2.7,1.1-2.9l0,0c0-0.1,0.2-2.1,0.2-4.2v-1.9
	C25.8,10.1,25.7,8,25.6,7.9z M24.3,14.1c0,1.9-0.2,3.9-0.2,4.1c-0.1,0.5-0.3,1.6-0.7,2.1c-0.6,0.7-1.3,0.8-1.8,0.8
	c-0.1,0-0.1,0-0.2,0c-3.3,0.2-8.3,0.3-8.5,0.3c-0.3,0-6.4-0.1-8.3-0.3c-0.1,0-0.2,0-0.3,0C3.8,21,3,20.9,2.4,20.3l0,0
	c-0.4-0.4-0.7-1.5-0.7-2.1c0-0.1-0.2-2.1-0.2-4.1v-1.9c0-1.9,0.2-3.9,0.2-4.1C1.8,7.5,2,6.4,2.4,6c0.7-0.7,1.4-0.8,1.8-0.9
	c0,0,0.1,0,0.1,0c3.4-0.2,8.4-0.3,8.5-0.3c0.2,0,5.2,0,8.5,0.3c0,0,0.1,0,0.1,0C22,5.2,22.7,5.3,23.4,6l0,0c0.4,0.4,0.7,1.5,0.7,2.1
	c0,0.1,0.2,2.1,0.2,4.1V14.1z"/>
</svg>
