<svg id="Layer_1" width="102" height="38" data-name="Layer 1" xmlns="http://www.w3.org/2000/svg" viewBox="0 0 96.8 26.3"><defs><style>.cls-1{isolation:isolate;}.cls-2{fill:#212121;}</style></defs><title>Basic</title><g id="Basic." class="cls-1"><g class="cls-1"><path class="cls-2" d="M20,23.4c0,4.3-3.2,6.6-7.6,6.6H2.2V7.6H12.4c3.9,0,6.8,1.9,6.8,5.9a4.5,4.5,0,0,1-2.6,4.4C18.9,18.7,20,20.9,20,23.4ZM11.6,12.8H7.7v3.3h4.1c1.3,0,1.9-.5,1.9-1.7S12.9,12.8,11.6,12.8ZM14.5,23c0-1.3-.5-1.9-2.3-1.9H7.7v3.7h4.5C14,24.8,14.5,24.1,14.5,23Z" transform="translate(-2.2 -4.1)"/><path class="cls-2" d="M40.8,12.4V30H35.3V28.1a6,6,0,0,1-5,2.3c-4.4,0-7.9-3.8-7.9-9.2S25.9,12,30.3,12a5.9,5.9,0,0,1,5,2.4v-2Zm-5.5,8.8a3.7,3.7,0,1,0-7.4,0,3.7,3.7,0,1,0,7.4,0Z" transform="translate(-2.2 -4.1)"/><path class="cls-2" d="M43.2,24.4h5.5c.2,1,.9,1.9,3.4,1.9s2.4-.5,2.4-1.2-.5-.9-3.5-1.5c-5-1.1-7.1-2.4-7.1-5.5S46.9,12,52,12s7.4,2.2,8,5.5H54.5c-.3-.8-1-1.4-2.7-1.4s-2.4.5-2.4,1.3.5.6,2.6,1.1c5.3,1.1,8.1,2.2,8.1,5.8s-3.5,6.1-8,6.1S43.8,28.1,43.2,24.4Z" transform="translate(-2.2 -4.1)"/><path class="cls-2" d="M68.9,7.2a3.3,3.3,0,1,1-3.3-3.1A3.1,3.1,0,0,1,68.9,7.2Zm-6.1,5.2h5.5V30H62.8Z" transform="translate(-2.2 -4.1)"/><path class="cls-2" d="M71.2,21.2A8.9,8.9,0,0,1,80.4,12c4.4,0,8.3,2.6,8.9,7.3H83.7A3,3,0,0,0,80.4,17c-2.4,0-3.7,1.7-3.7,4.2s1.4,4.2,3.7,4.2A3.1,3.1,0,0,0,83.7,23h5.6c-.6,4.9-4.6,7.4-8.9,7.4A8.9,8.9,0,0,1,71.2,21.2Z" transform="translate(-2.2 -4.1)"/><path class="cls-2" d="M99.1,27.3a3.3,3.3,0,0,1-6.6,0,3.3,3.3,0,0,1,6.6,0Z" transform="translate(-2.2 -4.1)"/></g></g></svg>