<?xml version="1.0" encoding="utf-8"?>
<!-- Generator: Adobe Illustrator 23.0.3, SVG Export Plug-In . SVG Version: 6.00 Build 0)  -->
<svg version="1.1" id="Layer_1" xmlns="http://www.w3.org/2000/svg" xmlns:xlink="http://www.w3.org/1999/xlink" x="0px" y="0px"
	 viewBox="0 0 36.4 26" style="enable-background:new 0 0 36.4 26;" xml:space="preserve">
<style type="text/css">
	.st0{fill:#CCCCCC;}
</style>
<path d="M34,15H2c-1.1,0-2-0.9-2-2l0,0c0-1.1,0.9-2,2-2h32c1.1,0,2,0.9,2,2l0,0C36,14.1,35.1,15,34,15z"/>
<path class="st0" d="M34,4H2C0.9,4,0,3.1,0,2l0,0c0-1.1,0.9-2,2-2h32c1.1,0,2,0.9,2,2l0,0C36,3.1,35.1,4,34,4z"/>
<path class="st0" d="M34,26H2c-1.1,0-2-0.9-2-2l0,0c0-1.1,0.9-2,2-2h32c1.1,0,2,0.9,2,2l0,0C36,25.1,35.1,26,34,26z"/>
</svg>
