<svg id="_8800" data-name="8800" xmlns="http://www.w3.org/2000/svg" width="31.918" height="25.927" viewBox="0 0 31.918 25.927">
  <g id="Group_4" data-name="Group 4" transform="translate(0)">
    <path id="Path_6" data-name="Path 6" d="M31.919,60.509a13.076,13.076,0,0,1-3.76,1.031,6.575,6.575,0,0,0,2.878-3.62,13.2,13.2,0,0,1-4.161,1.59,6.553,6.553,0,0,0-11.157,5.97A18.589,18.589,0,0,1,2.225,58.638a6.555,6.555,0,0,0,2.026,8.74,6.548,6.548,0,0,1-2.966-.822v.082a6.554,6.554,0,0,0,5.252,6.42,6.632,6.632,0,0,1-1.725.229,6.285,6.285,0,0,1-1.233-.122,6.551,6.551,0,0,0,6.115,4.548,13.137,13.137,0,0,1-8.132,2.8A13.914,13.914,0,0,1,0,80.422a18.508,18.508,0,0,0,10.036,2.946c12.045,0,18.629-9.977,18.629-18.629l-.022-.848A13.075,13.075,0,0,0,31.919,60.509Z" transform="translate(-0.001 -57.441)" fill="#d9d9d9"/>
  </g>
</svg>
