<?xml version="1.0" encoding="utf-8"?>
<!-- Generator: Adobe Illustrator 23.0.3, SVG Export Plug-In . SVG Version: 6.00 Build 0)  -->
<svg version="1.1" id="_70376" height="34.927" xmlns="http://www.w3.org/2000/svg" xmlns:xlink="http://www.w3.org/1999/xlink" x="0px" y="0px"
	 viewBox="0 0 25.9 25.9" style="enable-background:new 0 0 25.9 25.9;" xml:space="preserve">
<style type="text/css">
	.st0{fill:#D9D9D9;}
</style>
<g>
	<g>
		<path class="st0" d="M22.8,3.1H3.2C1.4,3.1,0,4.5,0,6.3v13.4c0,1.7,1.4,3.2,3.2,3.2h19.6c1.7,0,3.2-1.4,3.2-3.2V6.3
			C25.9,4.5,24.5,3.1,22.8,3.1z M24.5,19.7c0,0.9-0.8,1.7-1.7,1.7H3.2c-0.9,0-1.7-0.8-1.7-1.7V6.3c0-0.9,0.8-1.7,1.7-1.7h19.6
			c0.9,0,1.7,0.8,1.7,1.7L24.5,19.7L24.5,19.7z"/>
		<path class="st0" d="M16.4,12.8l6.3-5.7c0.3-0.3,0.3-0.7,0.1-1c-0.3-0.3-0.7-0.3-1-0.1L13,13.9l-1.7-1.5c0,0,0,0,0,0
			c0,0-0.1-0.1-0.1-0.1L4.2,6c-0.3-0.3-0.8-0.2-1,0.1s-0.2,0.8,0.1,1l6.4,5.7l-6.4,6c-0.3,0.3-0.3,0.7,0,1c0.1,0.2,0.3,0.2,0.5,0.2
			c0.2,0,0.4-0.1,0.5-0.2l6.5-6.1l1.8,1.6c0.1,0.1,0.3,0.2,0.5,0.2s0.3-0.1,0.5-0.2l1.8-1.6l6.4,6.1c0.1,0.1,0.3,0.2,0.5,0.2
			c0.2,0,0.4-0.1,0.5-0.2c0.3-0.3,0.3-0.8,0-1L16.4,12.8z"/>
	</g>
</g>
</svg>
